<?xml version="1.0" standalone="no"?>
<!DOCTYPE svg PUBLIC "-//W3C//DTD SVG 20010904//EN"
 "http://www.w3.org/TR/2001/REC-SVG-20010904/DTD/svg10.dtd">
<svg version="1.0" xmlns="http://www.w3.org/2000/svg"
 width="164.000000pt" height="164.000000pt" viewBox="0 0 164.000000 164.000000"
 preserveAspectRatio="xMidYMid meet">
<metadata>
Created by potrace 1.11, written by Peter Selinger 2001-2013
</metadata>
<g transform="translate(0.000000,164.000000) scale(0.100000,-0.100000)"
fill="#000000" stroke="none">
<path d="M757 1574 c-1 -2 -18 -5 -37 -8 -48 -6 -92 -16 -102 -22 -5 -3 -21
-8 -36 -10 -15 -3 -29 -9 -30 -15 -2 -5 -7 -7 -12 -4 -5 3 -14 0 -22 -7 -7 -7
-19 -14 -27 -16 -24 -5 -122 -72 -127 -87 -4 -8 -10 -13 -14 -10 -7 4 -77 -67
-125 -126 -47 -59 -133 -258 -120 -280 4 -5 2 -9 -2 -9 -10 0 -14 -39 -15
-150 -2 -99 10 -180 33 -222 7 -13 12 -25 12 -28 -2 -28 64 -154 105 -198 6
-7 12 -18 12 -23 0 -6 5 -7 10 -4 6 3 10 1 10 -5 0 -6 18 -30 40 -52 22 -23
40 -37 40 -32 0 4 7 -2 16 -14 8 -12 34 -32 56 -45 93 -51 143 -75 150 -71 5
3 8 0 8 -7 0 -7 3 -9 7 -6 3 4 11 2 18 -3 7 -5 27 -12 46 -14 19 -3 34 -5 34
-6 0 -5 78 -11 145 -12 99 -1 150 4 150 15 0 4 4 6 9 3 8 -5 49 5 96 24 80 31
105 44 105 53 0 6 3 7 7 4 3 -4 12 1 20 11 9 10 11 11 7 2 -5 -8 12 0 36 19
68 52 140 123 134 133 -3 5 -2 7 3 6 4 -2 10 2 12 7 2 6 11 15 20 22 9 7 12
13 7 13 -5 0 0 8 10 17 17 16 68 106 69 122 1 3 6 16 13 29 7 12 10 22 6 22
-3 0 -1 7 6 15 6 8 9 19 6 24 -4 5 -2 12 3 16 5 3 10 13 10 23 0 9 4 37 9 62
9 53 4 245 -8 258 -1 1 -4 7 -5 12 -1 6 -4 13 -5 18 -1 4 -3 12 -5 17 -1 6 -3
13 -5 18 -1 4 -3 10 -4 15 -7 29 -32 82 -39 82 -4 0 -5 5 -2 10 3 6 1 10 -5
10 -6 0 -9 4 -6 9 11 16 -139 205 -155 195 -4 -2 -11 1 -15 7 -5 8 -3 9 7 4
12 -8 12 -6 0 8 -8 10 -16 16 -18 13 -2 -2 -18 9 -35 25 -17 15 -35 26 -40 23
-4 -3 -8 -1 -8 4 0 10 -70 48 -82 44 -5 -1 -8 2 -8 6 0 5 -19 15 -42 22 -52
16 -48 15 -130 36 -25 6 -196 13 -201 8z"/>
</g>
</svg>
